<svg width="16" height="16" viewBox="0 0 16 16" fill="none" xmlns="http://www.w3.org/2000/svg">
<path d="M7.34937 7.69071L6.66671 6.66671L5.33337 8.66671H11.3334L9.00004 5.33337L7.34937 7.69071Z" fill="currentColor"/>
<path d="M6.33537 5.99997C6.88876 5.99997 7.33737 5.55136 7.33737 4.99797C7.33737 4.44458 6.88876 3.99597 6.33537 3.99597C5.78198 3.99597 5.33337 4.44458 5.33337 4.99797C5.33337 5.55136 5.78198 5.99997 6.33537 5.99997Z" fill="currentColor"/>
<path d="M12.6667 1.33337H4C3.196 1.33337 2 1.86604 2 3.33337V12.6667C2 14.134 3.196 14.6667 4 14.6667H14V13.3334H4.008C3.7 13.3254 3.33333 13.204 3.33333 12.6667C3.33333 12.1294 3.7 12.008 4.008 12H14V2.66671C14 1.93137 13.402 1.33337 12.6667 1.33337ZM12.6667 10.6667H3.33333V3.33337C3.33333 2.79604 3.7 2.67471 4 2.66671H12.6667V10.6667Z" fill="currentColor"/>
</svg>
