<svg width="16" height="16" viewBox="0 0 16 16" fill="none" xmlns="http://www.w3.org/2000/svg">
<path d="M6.66671 2V4.66667C6.66671 4.84348 6.59647 5.01305 6.47145 5.13807C6.34642 5.2631 6.17685 5.33333 6.00004 5.33333H3.33337M12.6667 2.66667V13.3333C12.6667 13.5101 12.5965 13.6797 12.4714 13.8047C12.3464 13.9298 12.1769 14 12 14H4.00004C3.82323 14 3.65366 13.9298 3.52864 13.8047C3.40361 13.6797 3.33337 13.5101 3.33337 13.3333V5.276C3.33341 5.0992 3.40367 4.92966 3.52871 4.80467L6.13804 2.19533C6.26304 2.0703 6.43258 2.00004 6.60937 2H12C12.1769 2 12.3464 2.07024 12.4714 2.19526C12.5965 2.32029 12.6667 2.48986 12.6667 2.66667Z" stroke="currentColor" stroke-width="1.33333" stroke-linejoin="round"/>
</svg>
