<svg width="16" height="16" viewBox="0 0 16 16" fill="none" xmlns="http://www.w3.org/2000/svg">
<g clip-path="url(#clip0_540_33)">
<path d="M11.5212 2.84454C11.4856 2.57884 11.3612 2.33298 11.1683 2.14688C10.9753 1.96078 10.7251 1.84537 10.4583 1.8194C9.13832 1.69368 7.75889 1.53711 6.34061 1.53711C4.92232 1.53711 3.54289 1.69482 2.22175 1.8194C1.95494 1.84537 1.70475 1.96078 1.51181 2.14688C1.31886 2.33298 1.19449 2.57884 1.15889 2.84454C1.01718 3.90511 0.857178 5.00911 0.857178 6.14282C0.857178 7.27654 1.01832 8.38054 1.15889 9.44111C1.23089 9.98739 1.67318 10.4148 2.22175 10.4663" stroke="currentColor" stroke-width="1.14286" stroke-linecap="round" stroke-linejoin="round"/>
<path d="M4.47884 13.1553C4.55084 13.7016 4.99312 14.1291 5.5417 14.1805C6.8617 14.3062 8.24112 14.4628 9.65941 14.4628C11.0777 14.4628 12.4571 14.3051 13.7783 14.1805C14.3268 14.1291 14.7691 13.7005 14.8411 13.1553C14.9817 12.0948 15.1428 10.9908 15.1428 9.85706C15.1428 8.72334 14.9817 7.61934 14.8411 6.55877C14.8055 6.29308 14.6812 6.04722 14.4882 5.86112C14.2953 5.67502 14.0451 5.55961 13.7783 5.53363C12.4571 5.40791 11.0788 5.25134 9.65941 5.25134C8.24227 5.25134 6.8617 5.40906 5.5417 5.53363C5.27489 5.55961 5.0247 5.67502 4.83175 5.86112C4.63881 6.04722 4.51444 6.29308 4.47884 6.55877C4.33827 7.61934 4.17712 8.72334 4.17712 9.85706C4.17712 10.9908 4.33712 12.0948 4.47884 13.1553Z" stroke="currentColor" stroke-width="1.14286" stroke-linecap="round" stroke-linejoin="round"/>
<path d="M4.3634 12.2057C4.8684 11.5827 5.45723 11.0328 6.11312 10.5714C6.75997 10.1131 7.62512 10.0777 8.27197 10.5371C9.68226 11.5405 10.8754 12.9691 11.6845 14.3737M11.5211 10.0914C12.4171 10.0914 12.92 9.58851 12.92 8.69366C12.92 7.7988 12.4171 7.2948 11.5211 7.2948C10.6263 7.2948 10.1223 7.79766 10.1223 8.69366C10.1223 9.58851 10.6263 10.0925 11.5211 10.0925" stroke="currentColor" stroke-width="1.14286" stroke-linecap="round" stroke-linejoin="round"/>
</g>
<defs>
<clipPath id="clip0_540_33">
<rect width="16" height="16" fill="white"/>
</clipPath>
</defs>
</svg>
