<svg width="16" height="16" viewBox="0 0 16 16" fill="none" xmlns="http://www.w3.org/2000/svg">
<path fill-rule="evenodd" clip-rule="evenodd" d="M4.66663 4.66663C4.13619 4.66663 3.62749 4.87734 3.25241 5.25241C2.87734 5.62749 2.66663 6.13619 2.66663 6.66663C2.66663 7.19706 2.87734 7.70577 3.25241 8.08084C3.62749 8.45591 4.13619 8.66663 4.66663 8.66663C5.19706 8.66663 5.70577 8.45591 6.08084 8.08084C6.45591 7.70577 6.66663 7.19706 6.66663 6.66663C6.66663 6.13619 6.45591 5.62749 6.08084 5.25241C5.70577 4.87734 5.19706 4.66663 4.66663 4.66663ZM3.99996 6.66663C3.99996 6.48982 4.0702 6.32025 4.19522 6.19522C4.32025 6.0702 4.48982 5.99996 4.66663 5.99996C4.84344 5.99996 5.01301 6.0702 5.13803 6.19522C5.26305 6.32025 5.33329 6.48982 5.33329 6.66663C5.33329 6.84344 5.26305 7.01301 5.13803 7.13803C5.01301 7.26305 4.84344 7.33329 4.66663 7.33329C4.48982 7.33329 4.32025 7.26305 4.19522 7.13803C4.0702 7.01301 3.99996 6.84344 3.99996 6.66663Z" fill="currentColor"/>
<path fill-rule="evenodd" clip-rule="evenodd" d="M2 2C1.46957 2 0.960859 2.21071 0.585786 2.58579C0.210714 2.96086 0 3.46957 0 4L0 12C0 12.5304 0.210714 13.0391 0.585786 13.4142C0.960859 13.7893 1.46957 14 2 14H14C14.5304 14 15.0391 13.7893 15.4142 13.4142C15.7893 13.0391 16 12.5304 16 12V4C16 3.46957 15.7893 2.96086 15.4142 2.58579C15.0391 2.21071 14.5304 2 14 2H2ZM14 3.33333H2C1.82319 3.33333 1.65362 3.40357 1.5286 3.5286C1.40357 3.65362 1.33333 3.82319 1.33333 4V12C1.33333 12.1768 1.40357 12.3464 1.5286 12.4714C1.65362 12.5964 1.82319 12.6667 2 12.6667H4.876L9.46133 8.08067C9.64706 7.89491 9.86755 7.74756 10.1102 7.64703C10.3529 7.5465 10.613 7.49476 10.8757 7.49476C11.1383 7.49476 11.3984 7.5465 11.6411 7.64703C11.8838 7.74756 12.1043 7.89491 12.29 8.08067L14.6667 10.4573V4C14.6667 3.82319 14.5964 3.65362 14.4714 3.5286C14.3464 3.40357 14.1768 3.33333 14 3.33333ZM14 12.6667H6.76133L10.4047 9.024C10.5297 8.89902 10.6992 8.82881 10.876 8.82881C11.0528 8.82881 11.2223 8.89902 11.3473 9.024L14.6047 12.2813C14.5511 12.3965 14.4657 12.4939 14.3585 12.5622C14.2514 12.6305 14.127 12.6667 14 12.6667Z" fill="currentColor"/>
</svg>
