<svg width="16" height="16" viewBox="0 0 16 16" fill="none" xmlns="http://www.w3.org/2000/svg">
<path d="M12.9 6.69329C12.6761 5.55844 12.0651 4.53653 11.1714 3.80212C10.2777 3.06771 9.15674 2.66636 8 2.66663C6.07333 2.66663 4.4 3.75996 3.56667 5.35996C2.58682 5.46585 1.68067 5.9301 1.02233 6.66351C0.363981 7.39692 -0.000114468 8.34774 2.69952e-08 9.33329C2.69952e-08 11.54 1.79333 13.3333 4 13.3333H12.6667C14.5067 13.3333 16 11.84 16 9.99996C16 8.23996 14.6333 6.81329 12.9 6.69329ZM9.33333 8.66663V11.3333H6.66667V8.66663H4.66667L7.76667 5.56663C7.9 5.43329 8.10667 5.43329 8.24 5.56663L11.3333 8.66663H9.33333Z" fill="currentColor"/>
</svg>
