<svg width="16" height="16" viewBox="0 0 16 16" fill="none" xmlns="http://www.w3.org/2000/svg">
<g clip-path="url(#clip0_540_18)">
<path d="M3.63996 13.3333L13.704 5.79331C13.9823 5.57617 14.2114 5.30237 14.3759 4.99004C14.5405 4.67771 14.6368 4.33398 14.6585 3.98162C14.6802 3.62926 14.6268 3.2763 14.5018 2.94614C14.3768 2.61598 14.1831 2.31614 13.9335 2.06648C13.6839 1.81683 13.3841 1.62306 13.0539 1.49801C12.7238 1.37296 12.3709 1.31948 12.0185 1.34111C11.6661 1.36274 11.3224 1.459 11.01 1.6235C10.6977 1.788 10.4238 2.01699 10.2066 2.29531L2.66663 12.3606" stroke="currentColor" stroke-width="1.25" stroke-linejoin="round"/>
<path d="M6.66664 11.3333L4.66664 9.33325M3.71864 14.5619C4.71997 13.1806 2.83064 11.2739 1.43864 12.2833C1.40888 12.3047 1.38416 12.3324 1.36616 12.3644C1.34817 12.3964 1.33734 12.4319 1.33442 12.4685C1.3315 12.5051 1.33657 12.5419 1.34927 12.5763C1.36197 12.6107 1.382 12.642 1.40797 12.6679L3.3333 14.5919C3.44397 14.7026 3.62664 14.6879 3.71864 14.5619Z" stroke="currentColor" stroke-width="1.25" stroke-linejoin="round"/>
<path d="M12.3333 14C11.4129 14 10.6667 13.2538 10.6667 12.3333C10.6667 11.4128 11.4129 10.6666 12.3333 10.6666C13.2538 10.6666 14 11.4128 14 12.3333C14 13.2538 13.2538 14 12.3333 14Z" stroke="currentColor" stroke-width="1.25" stroke-linejoin="round"/>
</g>
<defs>
<clipPath id="clip0_540_18">
<rect width="16" height="16" fill="white"/>
</clipPath>
</defs>
</svg>
