<svg width="16" height="16" viewBox="0 0 16 16" fill="none" xmlns="http://www.w3.org/2000/svg">
<path d="M9.60002 3.73333C9.60002 4.15768 9.43145 4.56465 9.13139 4.8647C8.83133 5.16476 8.42437 5.33333 8.00002 5.33333C7.57568 5.33333 7.16871 5.16476 6.86865 4.8647C6.56859 4.56465 6.40002 4.15768 6.40002 3.73333C6.40002 3.30899 6.56859 2.90202 6.86865 2.60196C7.16871 2.3019 7.57568 2.13333 8.00002 2.13333C8.42437 2.13333 8.83133 2.3019 9.13139 2.60196C9.43145 2.90202 9.60002 3.30899 9.60002 3.73333ZM6.40002 0.298667C6.40002 0.219455 6.36855 0.143488 6.31254 0.0874774C6.25653 0.0314666 6.18057 0 6.10135 0C5.99724 0.0285856 5.90425 0.0880973 5.83469 0.170667L3.20002 4.896C3.19399 4.94203 3.19399 4.98864 3.20002 5.03467C3.20002 5.2 3.33335 5.33333 3.49869 5.33333C3.60666 5.30675 3.70363 5.24708 3.77602 5.16267L6.40002 0.437333C6.40606 0.391308 6.40606 0.344692 6.40002 0.298667ZM12.6934 15.1467L9.60002 6.816C9.5755 6.69837 9.5112 6.59279 9.41794 6.51702C9.32469 6.44125 9.20818 6.39992 9.08802 6.4H3.75469C3.61324 6.4 3.47758 6.45619 3.37756 6.55621C3.27755 6.65623 3.22135 6.79188 3.22135 6.93333C3.22135 7.07478 3.27755 7.21044 3.37756 7.31046C3.47758 7.41048 3.61324 7.46667 3.75469 7.46667H6.40002L7.94669 10.144L3.39202 15.0613C3.33194 15.1104 3.28354 15.1723 3.25033 15.2424C3.21712 15.3125 3.19994 15.3891 3.20002 15.4667C3.20002 15.6081 3.25621 15.7438 3.35623 15.8438C3.45625 15.9438 3.59191 16 3.73335 16C3.86369 15.9983 3.98891 15.949 4.08535 15.8613L8.83202 11.4347L11.776 15.7013C11.8229 15.7848 11.891 15.8543 11.9734 15.903C12.0558 15.9517 12.1496 15.9778 12.2454 15.9787C12.544 15.9787 12.7894 15.744 12.8 15.4453C12.7956 15.3373 12.7584 15.2331 12.6934 15.1467Z" fill="currentColor"/>
</svg>
