<svg width="16" height="16" viewBox="0 0 16 16" fill="none" xmlns="http://www.w3.org/2000/svg">
<path d="M9.90671 2.28675L8.95337 1.33341L8.00004 2.28675L10.38 4.66675L4.66671 10.3801L2.28671 8.00008L1.33337 8.95341L2.28671 9.90675L1.33337 10.8601L2.76004 12.2867L1.80671 13.2401L2.76004 14.1934L3.71337 13.2401L5.14004 14.6667L6.09337 13.7134L7.04671 14.6667L8.00004 13.7134L5.62004 11.3334L11.3334 5.62008L13.7134 8.00008L14.6667 7.04675L13.7134 6.09341L14.6667 5.14008L13.24 3.71341L14.1934 2.76008L13.24 1.80675L12.2867 2.76008L10.86 1.33341L9.90671 2.28675Z" fill="currentColor"/>
</svg>
