<svg width="16" height="16" viewBox="0 0 16 16" fill="none" xmlns="http://www.w3.org/2000/svg">
<path d="M2 3.33333C2 2.97971 2.14048 2.64057 2.39052 2.39052C2.64057 2.14048 2.97971 2 3.33333 2H12.6667C13.0203 2 13.3594 2.14048 13.6095 2.39052C13.8595 2.64057 14 2.97971 14 3.33333V12.6667C14 13.0203 13.8595 13.3594 13.6095 13.6095C13.3594 13.8595 13.0203 14 12.6667 14H3.33333C2.97971 14 2.64057 13.8595 2.39052 13.6095C2.14048 13.3594 2 13.0203 2 12.6667V3.33333ZM12.6667 3.33333H3.33333V12.6667H12.6667V3.33333ZM8 4.66667C8.17681 4.66667 8.34638 4.7369 8.4714 4.86193C8.59643 4.98695 8.66667 5.15652 8.66667 5.33333V10.6667C8.66667 10.8435 8.59643 11.013 8.4714 11.1381C8.34638 11.2631 8.17681 11.3333 8 11.3333C7.82319 11.3333 7.65362 11.2631 7.5286 11.1381C7.40357 11.013 7.33333 10.8435 7.33333 10.6667V5.33333C7.33333 5.15652 7.40357 4.98695 7.5286 4.86193C7.65362 4.7369 7.82319 4.66667 8 4.66667ZM10.6667 6C10.8435 6 11.013 6.07024 11.1381 6.19526C11.2631 6.32029 11.3333 6.48986 11.3333 6.66667V10.6667C11.3333 10.8435 11.2631 11.013 11.1381 11.1381C11.013 11.2631 10.8435 11.3333 10.6667 11.3333C10.4899 11.3333 10.3203 11.2631 10.1953 11.1381C10.0702 11.013 10 10.8435 10 10.6667V6.66667C10 6.48986 10.0702 6.32029 10.1953 6.19526C10.3203 6.07024 10.4899 6 10.6667 6ZM5.33333 7.33333C5.51014 7.33333 5.67971 7.40357 5.80474 7.5286C5.92976 7.65362 6 7.82319 6 8V10.6667C6 10.8435 5.92976 11.013 5.80474 11.1381C5.67971 11.2631 5.51014 11.3333 5.33333 11.3333C5.15652 11.3333 4.98695 11.2631 4.86193 11.1381C4.7369 11.013 4.66667 10.8435 4.66667 10.6667V8C4.66667 7.82319 4.7369 7.65362 4.86193 7.5286C4.98695 7.40357 5.15652 7.33333 5.33333 7.33333Z" fill="currentColor"/>
</svg>
