<svg width="16" height="16" viewBox="0 0 16 16" fill="none" xmlns="http://www.w3.org/2000/svg">
<path fill-rule="evenodd" clip-rule="evenodd" d="M7.99994 9.41462L11.5353 12.95C11.7229 13.1375 11.9773 13.2429 12.2426 13.2429C12.5079 13.2429 12.7623 13.1375 12.9499 12.95C13.1375 12.7624 13.2429 12.5079 13.2429 12.2426C13.2429 11.9773 13.1375 11.7229 12.9499 11.5353L9.41327 7.99995L12.9493 4.46462C13.0421 4.37173 13.1158 4.26146 13.166 4.14012C13.2162 4.01877 13.2421 3.88872 13.242 3.75738C13.242 3.62605 13.2161 3.49601 13.1658 3.37468C13.1155 3.25336 13.0418 3.14313 12.9489 3.05028C12.8561 2.95744 12.7458 2.8838 12.6244 2.83357C12.5031 2.78334 12.373 2.7575 12.2417 2.75753C12.1104 2.75756 11.9803 2.78346 11.859 2.83375C11.7377 2.88404 11.6275 2.95773 11.5346 3.05062L7.99994 6.58595L4.46461 3.05062C4.3724 2.95507 4.2621 2.87883 4.14012 2.82637C4.01814 2.7739 3.88693 2.74625 3.75415 2.74504C3.62137 2.74382 3.48968 2.76906 3.36676 2.81928C3.24384 2.86951 3.13216 2.94371 3.03822 3.03756C2.94429 3.1314 2.86998 3.24302 2.81964 3.36589C2.7693 3.48876 2.74394 3.62043 2.74503 3.75321C2.74612 3.88599 2.77364 4.01722 2.82599 4.13925C2.87834 4.26128 2.95447 4.37166 3.04994 4.46395L6.58661 7.99995L3.05061 11.536C2.95514 11.6282 2.87901 11.7386 2.82666 11.8607C2.77431 11.9827 2.74679 12.1139 2.7457 12.2467C2.7446 12.3795 2.76997 12.5111 2.82031 12.634C2.87065 12.7569 2.94495 12.8685 3.03889 12.9623C3.13282 13.0562 3.24451 13.1304 3.36743 13.1806C3.49035 13.2308 3.62204 13.2561 3.75482 13.2549C3.8876 13.2536 4.0188 13.226 4.14078 13.1735C4.26276 13.1211 4.37307 13.0448 4.46527 12.9493L7.99994 9.41462Z" fill="currentColor"/>
</svg>
