<svg width="16" height="16" viewBox="0 0 16 16" fill="none" xmlns="http://www.w3.org/2000/svg">
<path d="M7.99996 11.3333C8.35358 11.3333 8.69272 11.1928 8.94277 10.9428C9.19282 10.6927 9.33329 10.3536 9.33329 9.99996C9.33329 9.64634 9.19282 9.3072 8.94277 9.05715C8.69272 8.8071 8.35358 8.66663 7.99996 8.66663C7.64634 8.66663 7.3072 8.8071 7.05715 9.05715C6.8071 9.3072 6.66663 9.64634 6.66663 9.99996C6.66663 10.3536 6.8071 10.6927 7.05715 10.9428C7.3072 11.1928 7.64634 11.3333 7.99996 11.3333ZM12 5.33329C12.3536 5.33329 12.6927 5.47377 12.9428 5.72382C13.1928 5.97387 13.3333 6.313 13.3333 6.66663V13.3333C13.3333 13.6869 13.1928 14.0261 12.9428 14.2761C12.6927 14.5262 12.3536 14.6666 12 14.6666H3.99996C3.64634 14.6666 3.3072 14.5262 3.05715 14.2761C2.8071 14.0261 2.66663 13.6869 2.66663 13.3333V6.66663C2.66663 6.313 2.8071 5.97387 3.05715 5.72382C3.3072 5.47377 3.64634 5.33329 3.99996 5.33329H4.66663V3.99996C4.66663 3.1159 5.01782 2.26806 5.64294 1.64294C6.26806 1.01782 7.1159 0.666626 7.99996 0.666626C8.4377 0.666626 8.87115 0.752845 9.27557 0.920361C9.67999 1.08788 10.0475 1.33341 10.357 1.64294C10.6665 1.95247 10.912 2.31993 11.0796 2.72435C11.2471 3.12877 11.3333 3.56222 11.3333 3.99996V5.33329H12ZM7.99996 1.99996C7.46953 1.99996 6.96082 2.21067 6.58575 2.58575C6.21067 2.96082 5.99996 3.46953 5.99996 3.99996V5.33329H9.99996V3.99996C9.99996 3.46953 9.78925 2.96082 9.41417 2.58575C9.0391 2.21067 8.53039 1.99996 7.99996 1.99996Z" fill="currentColor"/>
</svg>
