<svg width="16" height="16" viewBox="0 0 16 16" fill="none" xmlns="http://www.w3.org/2000/svg">
<path d="M12 8.66536H8.66671V11.9987C8.66671 12.1755 8.59647 12.3451 8.47145 12.4701C8.34642 12.5951 8.17685 12.6654 8.00004 12.6654C7.82323 12.6654 7.65366 12.5951 7.52864 12.4701C7.40361 12.3451 7.33337 12.1755 7.33337 11.9987V8.66536H4.00004C3.82323 8.66536 3.65366 8.59513 3.52864 8.4701C3.40361 8.34508 3.33337 8.17551 3.33337 7.9987C3.33337 7.82189 3.40361 7.65232 3.52864 7.52729C3.65366 7.40227 3.82323 7.33203 4.00004 7.33203H7.33337V3.9987C7.33337 3.82189 7.40361 3.65232 7.52864 3.52729C7.65366 3.40227 7.82323 3.33203 8.00004 3.33203C8.17685 3.33203 8.34642 3.40227 8.47145 3.52729C8.59647 3.65232 8.66671 3.82189 8.66671 3.9987V7.33203H12C12.1769 7.33203 12.3464 7.40227 12.4714 7.52729C12.5965 7.65232 12.6667 7.82189 12.6667 7.9987C12.6667 8.17551 12.5965 8.34508 12.4714 8.4701C12.3464 8.59513 12.1769 8.66536 12 8.66536Z" fill="currentColor"/>
</svg>
